# xmcd
#
# Track frame offsets:
#	150
#	16503
#	26503
#	45016
#	54431
#	68096
#	89590
#	100594
#	122875
#	137090
#	151214
#	164370
#	178242
#	187611
#	198130
#	211194
#
# Disc length: 3062 seconds
#
# Revision: 0
# Processed by: cddbd v1.5.2PL0 Copyright (c) Steve Scherf et al.
# Submitted via: audiograbber 1.83.01
#
DISCID=be0bf410
DTITLE=Country Funk - Country Funk
DYEAR=1970
DGENRE=Country
TTITLE0=Apart of Me
TTITLE1=Phoebe (Mourning Pink)
TTITLE2=Really My Friend
TTITLE3=Not This Time
TTITLE4=For Me
TTITLE5=Poor Boy
TTITLE6=A Way to Settle Down
TTITLE7=When I'm Without You 
TTITLE8=Comin' In
TTITLE9=If I Find a Way (Song of Love)
TTITLE10=Another Miss
TTITLE11=Want
TTITLE12=One Time Lover (Adam Taylor)
TTITLE13=Woman (Adam Taylor)
TTITLE14=Melrose Street 5829 (Adam Taylor)
TTITLE15=Love (Adam Taylor)
EXTD=
EXTT0=
EXTT1=
EXTT2=
EXTT3=
EXTT4=
EXTT5=
EXTT6=
EXTT7=
EXTT8=
EXTT9=
EXTT10=
EXTT11=
EXTT12=
EXTT13=
EXTT14=
EXTT15=
PLAYORDER=
